<svg width="63" height="63" fill="none" xmlns="http://www.w3.org/2000/svg"><path d="M24.777 43.79a1.32 1.32 0 01-.93-.383L6.217 25.772a5.257 5.257 0 010-7.426 5.258 5.258 0 017.423 0l15.78 15.779a1.313 1.313 0 01-1.857 1.856l-15.78-15.779a2.634 2.634 0 00-3.711 0 2.618 2.618 0 00-.77 1.856c0 .703.274 1.362.77 1.858l17.634 17.632a1.313 1.313 0 01-.929 2.242z" fill="#000"/><path d="M34.059 30.796a1.32 1.32 0 01-.93-.383l-17.63-17.635a2.625 2.625 0 10-3.715 3.712l1.856 1.856a1.313 1.313 0 01-1.856 1.856l-1.856-1.856a5.214 5.214 0 01-1.538-3.712c0-1.402.546-2.72 1.538-3.712 1.982-1.981 5.44-1.987 7.427 0l17.632 17.635a1.313 1.313 0 01-.927 2.24z" fill="#000"/><path d="M39.63 25.229a1.32 1.32 0 01-.93-.383L24.777 10.923a2.622 2.622 0 00-3.712 0 2.627 2.627 0 000 3.711 1.313 1.313 0 01-1.856 1.856 5.259 5.259 0 010-7.423 5.258 5.258 0 017.424 0L40.556 22.99a1.313 1.313 0 01-.927 2.239z" fill="#000"/><path d="M38.196 59.467c-.884 0-1.78-.1-2.667-.302l-22.102-5.066a5.123 5.123 0 01-2.57-1.413 5.221 5.221 0 01-1.541-3.711 5.22 5.22 0 011.54-3.712 5.12 5.12 0 012.408-1.37c.026-.01.052-.016.079-.024l11.13-2.67a1.308 1.308 0 011.582.972 1.316 1.316 0 01-.97 1.582L14.03 46.405c-.034.01-.068.02-.105.029a2.488 2.488 0 00-1.212.687 2.61 2.61 0 00-.772 1.856c0 .701.273 1.36.772 1.856a2.547 2.547 0 001.268.704l22.136 5.074a9.13 9.13 0 008.55-2.46l10.741-10.744a9.128 9.128 0 002.69-6.497c0-2.454-.955-4.76-2.69-6.497L32.206 7.211a2.622 2.622 0 00-3.712 0 2.627 2.627 0 000 3.712 1.313 1.313 0 01-1.856 1.855 5.258 5.258 0 010-7.423 5.258 5.258 0 017.424 0l23.202 23.202a11.72 11.72 0 013.46 8.353 11.73 11.73 0 01-3.46 8.353L46.523 56.007a11.765 11.765 0 01-8.327 3.46z" fill="#000"/></svg>