<svg width="61" height="61" fill="none" xmlns="http://www.w3.org/2000/svg"><g clip-path="url(#clip0_3208_321)" fill="#000"><path d="M37.4 24.834l-9.166 8.657-4.399-4.526a1.268 1.268 0 10-1.818 1.767l5.276 5.416c.49.493 1.282.51 1.793.038l10.08-9.509a1.267 1.267 0 00.051-1.793c-.49-.51-1.3-.532-1.818-.05z"/><path d="M30.598 11.511c-10.474 0-18.992 8.518-18.992 18.992 0 10.475 8.518 18.993 18.992 18.993 10.476 0 18.993-8.518 18.993-18.993 0-10.474-8.517-18.992-18.993-18.992zm0 35.442c-9.076 0-16.45-7.386-16.45-16.45s7.374-16.45 16.45-16.45c9.086 0 16.45 7.365 16.45 16.45 0 9.085-7.364 16.45-16.45 16.45z"/><path d="M56.735 23.511l.42-7.538a1.268 1.268 0 00-.7-1.208l-6.711-3.394L46.35 4.66a1.29 1.29 0 00-1.208-.7l-7.552.408L31.298.21a1.27 1.27 0 00-1.398 0l-6.293 4.157-7.538-.42a1.266 1.266 0 00-1.208.7l-3.394 6.712-6.712 3.394a1.29 1.29 0 00-.7 1.207l.42 7.539-4.157 6.293a1.27 1.27 0 000 1.398l4.144 6.305-.42 7.538a1.27 1.27 0 00.7 1.208l6.712 3.394 3.394 6.712c.23.45.703.723 1.208.7l7.538-.42 6.293 4.157c.422.288.977.288 1.398 0l6.293-4.157 7.539.42c.506.029.98-.246 1.207-.7l3.394-6.712 6.712-3.394c.45-.23.724-.703.7-1.208l-.42-7.538 4.157-6.293a1.27 1.27 0 000-1.398l-4.132-6.293zm-2.364 12.942a1.194 1.194 0 00-.203.775l.393 7.132-6.343 3.203a1.254 1.254 0 00-.559.56l-3.204 6.343-7.131-.394c-.273-.01-.543.06-.776.203l-5.95 3.929-5.948-3.929a1.259 1.259 0 00-.7-.216h-.063l-7.132.395-3.203-6.344a1.252 1.252 0 00-.56-.56l-6.356-3.19.394-7.132a1.389 1.389 0 00-.203-.775l-3.928-5.95 3.928-5.95a1.19 1.19 0 00.203-.774l-.394-7.132 6.344-3.204c.242-.12.438-.317.559-.559l3.203-6.343 7.132.394c.273.01.542-.061.776-.204l5.949-3.928 5.95 3.928c.227.156.5.228.775.204l7.131-.394 3.204 6.343c.121.242.317.438.56.56l6.342 3.203-.393 7.132c-.01.272.06.542.203.775l3.928 5.95-3.928 5.949z"/></g><defs><clipPath id="clip0_3208_321"><path fill="#fff" d="M0 0h61v61H0z"/></clipPath></defs></svg>