<?xml version="1.0" encoding="UTF-8"?> <svg xmlns="http://www.w3.org/2000/svg" width="61" height="63" fill="none"><path d="M56.66 41.349l-5.895-4.193c.99-3.64.985-7.48-.016-11.118l5.915-4.14-4.722-8.17-6.578 3.009a21.072 21.072 0 00-9.64-5.545L35.097 4h-9.445l-.627 7.192a21.07 21.07 0 00-9.636 5.548l-6.581-3.01-4.72 8.17 5.916 4.141a21.07 21.07 0 00-.02 11.115L4.09 41.35l4.719 8.131 6.581-3.012a21.07 21.07 0 009.636 5.544l.628 7.192h9.444l.627-7.192a21.073 21.073 0 009.637-5.544l6.58 3.012 4.723-8.128-.003-.003zM36.892.7a1.625 1.625 0 011.625 1.55l.578 6.614a24.213 24.213 0 016.64 3.829l6.013-2.805a1.625 1.625 0 012.151.634L60.414 21.8a1.625 1.625 0 01-.526 2.18l-5.44 3.81a24.17 24.17 0 01.003 7.667l5.437 3.802a1.625 1.625 0 01.526 2.184l-6.516 11.235a1.625 1.625 0 01-2.151.634l-6.013-2.805a24.207 24.207 0 01-6.64 3.832l-.578 6.614a1.625 1.625 0 01-1.625 1.547H23.859a1.625 1.625 0 01-1.626-1.547l-.578-6.614a24.222 24.222 0 01-6.64-3.832l-6.012 2.805a1.625 1.625 0 01-2.155-.63L.335 41.44a1.625 1.625 0 01.527-2.18l5.437-3.807a24.212 24.212 0 010-7.666L.865 23.98a1.625 1.625 0 01-.527-2.178l6.507-11.28A1.625 1.625 0 019 9.889l6.012 2.805a24.213 24.213 0 016.64-3.829l.578-6.614a1.625 1.625 0 011.625-1.55h13.036zm-6.517 19.55a11.375 11.375 0 110 22.75 11.375 11.375 0 010-22.75zm0 3.25a8.125 8.125 0 100 16.25 8.125 8.125 0 000-16.25z" fill="#000"></path></svg> 